<svg id="Capa_1" enable-background="new 0 0 512 512" height="512" viewBox="0 0 512 512" width="512" xmlns="http://www.w3.org/2000/svg"><g><path d="m436 0h-60-60c-41.353 0-75 34.647-75 76v60c0 36.226 25.811 66.519 60 73.491v40.781l75-37.5 3.545-1.772h56.455c41.353 0 76-33.647 76-75v-60c0-41.353-34.647-76-76-76z" fill="#ff4b87"/><path d="m436 211c41.353 0 76-33.647 76-75v-60c0-41.353-34.647-76-76-76h-60v212.772l3.545-1.772z" fill="#e62e6b"/><path d="m416.605 86.605-21.21-21.21-19.395 19.394-19.395-19.394-21.21 21.21 19.394 19.395-19.394 19.395 21.21 21.21 19.395-19.394 19.395 19.394 21.21-21.21-19.394-19.395z" fill="#edf3f9"/><path d="m416.605 125.395-19.394-19.395 19.394-19.395-21.21-21.21-19.395 19.394v42.422l19.395 19.394z" fill="#d8e2f0"/><path d="m285.033 365.501-71.19-15.134-47.843 17.844-47.84-17.84-71.721 15.262c-26.748 6.694-46.439 30.63-46.439 58.213v88.154h61l15-30 15 30h75 75l15-30 15 30h60v-88.154c0-27.583-18.691-51.519-45.967-58.345z" fill="#abbccc"/><path d="m271 512h60v-88.154c0-27.583-18.691-51.519-45.967-58.345l-71.19-15.134-47.843 17.844v143.789h75l15-30z" fill="#8d9fb8"/><path d="m166 303.143h-30v22.646l10.172 25.172 19.828 19.828 21.506-21.506 8.494-23.494v-22.646z" fill="#fb9"/><path d="m196 325.789v-22.646h-30v67.646l21.506-21.506z" fill="#ff9680"/><path d="m61 452h30v60h-30z" fill="#d8e2f0"/><path d="m241 452h30v60h-30z" fill="#c3d0e6"/><path d="m166 151c-45.557 0-75 29.443-75 75 0 49.57 32.08 106 75 106s75-56.43 75-106c0-45.557-29.443-75-75-75z" fill="#ffd9b3"/><path d="m241 226c0-45.557-29.443-75-75-75v181c42.92 0 75-56.43 75-106z" fill="#fb9"/><path d="m182.538 377h-16.538-16.538l-30.63 87.847 47.168 47.153 47.168-47.153z" fill="#3d4566"/><path d="m182.538 377h-16.538v135l47.168-47.153z" fill="#2e2e4d"/><path d="m196 325.789-30 30-30-30-17.84 24.582 47.84 47.84 47.844-47.844z" fill="#4d5e80"/><path d="m196 325.789-30 30v42.422l47.844-47.844z" fill="#3d4566"/></g></svg>