<svg id="color" enable-background="new 0 0 24 24" height="512" viewBox="0 0 24 24" width="512" xmlns="http://www.w3.org/2000/svg"><path d="m18.673 7.927c-1.312-2.399-3.884-3.927-6.673-3.927-3.545 0-6.62 2.465-7.397 5.829-2.584.272-4.603 2.442-4.603 5.071 0 2.812 2.312 5.1 5.152 5.1h12.718c3.38 0 6.13-2.722 6.13-6.067 0-3.066-2.307-5.625-5.327-6.006z" fill="#2196f3"/><path d="m12 4c-3.545 0-6.62 2.465-7.397 5.829-2.584.272-4.603 2.442-4.603 5.071 0 2.812 2.312 5.1 5.152 5.1h6.848z" fill="#1d83d4"/><g fill="#fff"><path d="m7.25 17h-1.5c-.414 0-.75-.336-.75-.75s.336-.75.75-.75h1.5c.138 0 .25-.112.25-.25v-3.5c0-.414.336-.75.75-.75s.75.336.75.75v3.5c0 .965-.785 1.75-1.75 1.75z"/><path d="m12.25 17h-.5c-.965 0-1.75-.785-1.75-1.75v-2.5c0-.965.785-1.75 1.75-1.75h.5c.965 0 1.75.785 1.75 1.75v2.5c0 .965-.785 1.75-1.75 1.75zm-.5-4.5c-.138 0-.25.112-.25.25v2.5c0 .138.112.25.25.25h.5c.138 0 .25-.112.25-.25v-2.5c0-.138-.112-.25-.25-.25z"/><path d="m19 12.87c0-1.031-.839-1.87-1.87-1.87h-1.38c-.414 0-.75.336-.75.75v4.5c0 .414.336.75.75.75h1.38c1.031 0 1.87-.839 1.87-1.88 0-.422-.146-.808-.383-1.121.237-.315.383-.703.383-1.129zm-1.5.01c0 .204-.166.37-.37.37h-.63v-.75h.63c.204 0 .37.166.37.38zm-.37 2.62h-.63v-.75h.63c.204 0 .37.166.37.38 0 .204-.166.37-.37.37z"/></g><path d="m9 14h-1.5v1.25c0 .138-.112.25-.25.25h-1.5c-.414 0-.75.336-.75.75s.336.75.75.75h1.5c.965 0 1.75-.785 1.75-1.75z" fill="#dedede"/><path d="m14 14h-1.5v1.25c0 .138-.112.25-.25.25h-.5c-.138 0-.25-.112-.25-.25v-1.25h-1.5v1.25c0 .965.785 1.75 1.75 1.75h.5c.965 0 1.75-.785 1.75-1.75z" fill="#dedede"/><path d="m16.5 15.5v-.75h.63c.204 0 .37.166.37.38 0 .204-.166.37-.37.37zm2.118-1.5h-3.618v2.25c0 .414.336.75.75.75h1.38c1.031 0 1.87-.839 1.87-1.88 0-.422-.146-.807-.382-1.12z" fill="#dedede"/></svg>